<?xml version="1.0" encoding="UTF-8" standalone="no"?>
<!-- Created with Inkscape (http://www.inkscape.org/) -->

<svg
   width="208.9584mm"
   height="230.02817mm"
   viewBox="0 0 208.9584 230.02817"
   version="1.1"
   id="svg1"
   xml:space="preserve"
   xmlns:inkscape="http://www.inkscape.org/namespaces/inkscape"
   xmlns:sodipodi="http://sodipodi.sourceforge.net/DTD/sodipodi-0.dtd"
   xmlns="http://www.w3.org/2000/svg"
   xmlns:svg="http://www.w3.org/2000/svg"><sodipodi:namedview
     id="namedview1"
     pagecolor="#ffffff"
     bordercolor="#000000"
     borderopacity="0.25"
     inkscape:showpageshadow="2"
     inkscape:pageopacity="0.0"
     inkscape:pagecheckerboard="0"
     inkscape:deskcolor="#d1d1d1"
     inkscape:document-units="mm" /><defs
     id="defs1" /><g
     inkscape:label="Layer 1"
     inkscape:groupmode="layer"
     id="layer1"
     transform="translate(-0.45068107,-7.4835007)"><g
       id="g1"
       transform="matrix(1.2354226,0,0,1.2140077,-24.477203,-13.132359)"><path
         style="fill:#ede6d7"
         d="m 127.59557,206.31296 -10.69101,-0.0969 -0.3791,-0.42907 -0.3791,-0.42907 -0.0832,-25.13503 c -0.0671,-20.25927 -0.12516,-25.18253 -0.29939,-25.3799 -0.16772,-0.19 -1.78036,-0.26598 -7.19617,-0.33906 l -6.98,-0.0942 -0.41726,-0.47244 -0.41726,-0.47244 -0.0327,-10.64237 c -0.0347,-11.27746 -0.028,-11.38146 0.74003,-11.58239 0.59121,-0.15467 18.04979,-0.46478 37.15914,-0.66006 26.5572,-0.27139 29.38902,-0.44167 36.37323,-2.18725 5.77929,-1.44442 7.72446,-2.36972 11.40483,-5.42519 1.07305,-0.89084 2.083,-1.61971 2.24434,-1.61971 0.79327,0 0.85862,0.88273 0.34572,4.6698 -0.3808,2.81163 -0.99604,5.70189 -1.60541,7.54179 -1.18135,3.56692 -4.95702,9.18189 -7.80565,11.60812 -3.22043,2.74291 -6.85372,4.92125 -10.51807,6.30613 -3.4632,1.30886 -5.96893,1.84293 -9.78122,2.08478 -1.73093,0.1098 -4.65244,0.32441 -6.49225,0.47689 -1.83981,0.15248 -4.05676,0.28409 -4.92655,0.29245 -2.0223,0.0194 -3.31823,0.2294 -3.50777,0.56829 -0.0863,0.15427 -0.1505,10.87848 -0.15197,25.38205 -0.002,16.5722 -0.0598,25.23605 -0.17098,25.47105 -0.2644,0.5591 -1.23846,0.7508 -3.5771,0.704 -1.19024,-0.0238 -6.97503,-0.0869 -12.85509,-0.14024 z m -70.628531,-1.96994 c -1.419138,-0.98143 -4.003552,-2.86892 -5.74314,-4.19441 -2.767152,-2.10845 -3.209753,-2.51515 -3.537442,-3.25054 l -0.374553,-0.84056 -0.004,-54.63931 c -0.0023,-31.17935 -0.06749,-54.949028 -0.151911,-55.360673 -0.08137,-0.396756 -0.192887,-0.772239 -0.247821,-0.834406 -0.23934,-0.270854 -1.70956,0.782084 -14.376164,10.295874 -2.5375,1.905897 -4.862594,3.583921 -5.166876,3.728942 -1.115228,0.531518 -1.365283,0.214239 -3.442842,-4.36841 -0.892489,-1.96864 -2.10015,-4.605775 -2.68369,-5.8603 -0.583541,-1.254525 -1.060983,-2.520526 -1.060983,-2.813336 0,-0.87158 1.222924,-1.977832 6.333802,-5.729534 2.60497,-1.91221 5.710147,-4.193118 6.900392,-5.068686 1.190245,-0.875567 2.800821,-2.059857 3.579058,-2.631755 7.2521,-5.329306 13.389975,-9.888156 21.391118,-15.888056 8.273367,-6.204035 12.050378,-8.992495 15.564743,-11.491006 2.166257,-1.540083 5.991692,-4.384822 20.066957,-14.922548 10.782573,-8.072591 10.289503,-7.742854 11.252413,-7.524916 0.30228,0.06842 3.39153,2.262605 6.96038,4.943725 3.52927,2.651389 7.35325,5.508442 8.49771,6.349006 1.14447,0.840565 2.97978,2.1909 4.07846,3.000745 1.09869,0.809846 3.45837,2.539245 5.24374,3.84311 3.6176,2.641957 5.35503,3.914904 10.04046,7.356246 1.76338,1.295158 3.84009,2.816098 4.61491,3.379867 5.26876,3.833583 14.39531,10.62471 23.77163,17.688636 6.01189,4.529235 12.59289,9.447559 14.62443,10.929608 2.03154,1.482049 3.89064,2.901171 4.13133,3.153605 0.53418,0.560242 0.51235,1.272086 -0.0417,1.361157 -0.42477,0.06828 -1.3576,-0.402807 -9.39436,-4.744288 -3.17501,-1.715147 -7.55728,-4.04479 -9.73837,-5.176984 -2.1811,-1.132194 -6.02567,-3.134732 -8.54349,-4.450084 -2.51783,-1.315351 -4.96309,-2.591271 -5.43391,-2.835375 -0.47083,-0.244105 -3.5047,-1.839196 -6.74195,-3.544647 -3.23725,-1.705451 -8.54523,-4.497633 -11.79551,-6.204848 -7.16252,-3.76212 -15.47414,-8.183183 -20.97495,-11.156855 -2.24315,-1.212623 -4.34065,-2.313494 -4.6611,-2.446379 -0.32045,-0.132886 -0.97375,-0.540992 -1.45177,-0.906902 -1.16362,-0.890703 -1.87826,-1.130842 -3.10094,-1.041997 -1.50422,0.109303 -2.59077,0.76768 -7.938504,4.810185 -2.606012,1.969961 -6.19896,4.664159 -7.984327,5.987107 -1.785368,1.322949 -5.830536,4.329016 -8.989264,6.680149 -3.158727,2.351134 -7.050814,5.243736 -8.649083,6.428005 -1.598269,1.184269 -4.162663,3.08573 -5.698653,4.22547 -1.535991,1.139739 -3.310409,2.444275 -3.943151,2.898969 -0.779984,0.560503 -1.276753,1.076139 -1.542698,1.601287 l -0.392257,0.774569 -0.08323,65.085003 c -0.07373,57.65473 -0.111741,65.091 -0.332936,65.13748 -0.137336,0.0289 -1.410815,-0.75051 -2.829953,-1.73194 z m 13.154283,-20.59749 c -0.309262,-0.17836 -0.704333,-0.54376 -0.877936,-0.81201 -0.307374,-0.47496 -0.317793,-1.72816 -0.397807,-47.85021 -0.07897,-45.521235 -0.0704,-47.388108 0.220574,-48.021828 0.217326,-0.473325 0.486884,-0.727393 0.955414,-0.90051 0.976314,-0.36074 87.990573,-0.435147 90.405233,-0.07731 8.49509,1.258925 14.36612,3.992699 19.68578,9.166447 2.62469,2.552707 4.5274,5.181661 5.76219,7.961571 1.59519,3.59128 2.44519,6.75239 2.47054,9.1878 0.0313,3.00665 -0.72912,5.06913 -2.67996,7.26881 -1.98893,2.24263 -4.50267,3.7067 -8.36019,4.86918 -2.4334,0.73331 -14.60057,3.06347 -15.60915,2.98934 -1.19384,-0.0878 -1.25393,-0.37837 -0.83319,-4.02944 0.61728,-5.35646 0.28736,-7.27015 -1.60197,-9.29228 -1.00352,-1.07405 -2.17229,-1.74537 -3.57865,-2.0555 -1.26125,-0.27814 -57.578821,-0.51066 -57.93054,-0.23919 -0.219972,0.16979 -0.259612,4.41812 -0.332936,35.68157 -0.08992,38.34141 -0.02656,35.97401 -0.968693,36.1899 -0.245456,0.0563 -6.143313,0.14404 -13.106349,0.1951 -11.745303,0.0861 -12.700694,0.0694 -13.22236,-0.23144 z M 47.670748,50.791541 47.311904,50.275277 V 34.179135 18.082992 l 0.486599,-0.550669 0.486598,-0.550668 h 5.35072 c 3.351504,0 5.470383,0.07247 5.670989,0.193971 0.824902,0.499603 0.82345,0.476824 0.818429,12.842448 l -0.0047,11.548036 -0.377375,0.835017 c -0.236314,0.522892 -0.685692,1.075793 -1.202202,1.479156 -5.226316,4.081432 -9.538813,7.248914 -9.979517,7.329847 -0.437201,0.08029 -0.595731,0.0058 -0.890707,-0.418589 z"
         id="path7" /><path
         style="fill:#d6caad"
         d="m 117.12353,206.03887 c -0.28657,-0.14113 -0.58621,-0.37094 -0.66587,-0.51069 -0.0797,-0.13975 -0.18229,-11.54722 -0.22807,-25.34993 -0.0788,-23.76213 -0.099,-25.11372 -0.38028,-25.4322 -0.27291,-0.30902 -0.86419,-0.344 -7.27855,-0.43054 l -6.98151,-0.0942 -0.37897,-0.429 -0.37897,-0.429 -0.0458,-10.39991 c -0.047,-10.67866 -0.0184,-11.22889 0.60206,-11.56531 0.30877,-0.16743 7.39498,-0.29342 33.81934,-0.60129 18.8598,-0.21973 29.01775,-0.47315 31.8623,-0.7949 3.83529,-0.43382 10.12722,-1.87135 13.06368,-2.98469 2.44109,-0.92553 3.79944,-1.78917 6.90155,-4.38807 2.20803,-1.84984 2.44548,-1.55204 1.95129,2.44721 -0.60005,4.85603 -1.51803,8.42422 -2.83992,11.0388 -1.0894,2.15473 -3.21426,5.27861 -4.81962,7.0856 -2.3562,2.65214 -6.95428,5.88624 -10.57839,7.4404 -4.18552,1.79491 -6.83942,2.45182 -11.07011,2.74012 -1.5107,0.10294 -4.31984,0.30907 -6.24255,0.45806 -1.9227,0.14899 -4.58202,0.32283 -5.90961,0.38631 -2.60136,0.12438 -3.25869,0.29469 -3.42491,0.88735 -0.0587,0.20911 -0.051,11.41761 0.0171,24.90779 0.0932,18.48276 0.0759,24.69143 -0.0702,25.19237 -0.11539,0.39569 -0.36355,0.75227 -0.61306,0.88092 -0.66332,0.34202 -25.6106,0.28968 -26.3109,-0.0552 z m -60.739128,-2.419 c -5.202615,-3.69395 -8.114012,-6.00267 -8.485529,-6.72898 -0.336102,-0.65708 -0.337554,-0.85059 -0.420501,-56.04502 -0.04578,-30.46212 -0.143838,-55.491642 -0.217909,-55.621158 -0.07407,-0.129516 -0.30117,-0.235483 -0.504664,-0.235483 -0.576755,0 -1.161493,0.417948 -13.476985,9.632828 -3.462545,2.590796 -6.008064,4.373981 -6.327711,4.432683 -0.401462,0.07373 -0.611647,0.0021 -0.843123,-0.287371 -0.16959,-0.212068 -1.498382,-2.992278 -2.952872,-6.178244 -1.787671,-3.915779 -2.644526,-5.986784 -2.644526,-6.391779 0,-0.730301 0.613306,-1.404152 2.66395,-2.926933 1.229096,-0.91271 7.652065,-5.646984 10.07084,-7.423064 10.308967,-7.569761 16.127879,-11.891396 30.007645,-22.286308 3.08906,-2.313476 6.815041,-5.062682 8.279958,-6.109345 C 75.22459,44.814086 80.942738,40.57997 90.510309,33.399553 104.635,22.79904 104.18221,23.114172 105.09036,23.252018 c 0.50065,0.07599 2.46375,1.456091 8.43451,5.929627 4.28009,3.20682 14.18684,10.519282 22.01499,16.249915 18.78289,13.750101 18.62267,13.631421 31.79536,23.552022 6.27167,4.723318 13.16916,9.8732 15.32774,11.444181 2.15859,1.570982 4.12921,3.070813 4.37915,3.332957 0.50413,0.528726 0.45166,0.851736 -0.13836,0.851736 -0.21337,0 -3.07428,-1.450305 -6.35757,-3.222899 -3.28329,-1.772594 -8.06711,-4.323794 -10.63071,-5.669333 -2.56361,-1.34554 -5.59748,-2.937651 -6.74195,-3.538025 -1.14447,-0.600375 -4.44416,-2.321593 -7.33265,-3.824929 -5.52063,-2.87325 -12.95873,-6.776889 -17.30459,-9.081738 -1.41914,-0.752647 -4.79011,-2.533133 -7.49105,-3.956635 -5.48362,-2.890085 -19.89047,-10.583757 -21.30789,-11.379026 -0.50356,-0.282534 -1.28483,-0.757219 -1.73615,-1.054855 -1.49816,-0.987993 -3.3518,-0.964199 -5.08903,0.06532 -0.50356,0.298425 -4.136723,2.958083 -8.073687,5.910351 -3.936965,2.952268 -10.566547,7.895972 -14.732404,10.98601 -4.165858,3.090037 -9.334684,6.928135 -11.486281,8.529107 -2.151597,1.600972 -4.623644,3.418915 -5.493439,4.039875 -1.615159,1.153086 -2.538976,2.01223 -2.885233,2.683249 -0.146794,0.284473 -0.214812,16.320913 -0.277656,65.461782 -0.07373,57.6557 -0.111737,65.0908 -0.332936,65.13584 -0.137336,0.028 -1.598091,-0.90655 -3.246122,-2.07668 z m 13.598728,-20.1067 c -1.111303,-0.77192 -1.030406,3.0571 -1.030406,-48.77156 0,-29.52846 0.05942,-47.267292 0.159316,-47.564648 0.08762,-0.260814 0.405993,-0.61872 0.707488,-0.795346 0.512297,-0.300121 3.467869,-0.322287 45.161552,-0.338699 l 44.61338,-0.01756 2.33055,0.422162 c 8.09198,1.465801 13.42456,4.169275 18.6444,9.452208 2.76439,2.797797 4.62229,5.677843 5.95011,9.223603 2.03767,5.44133 2.2547,8.52535 0.83438,11.85654 -0.64158,1.50474 -2.7573,3.85287 -4.43457,4.9217 -3.04092,1.93782 -5.6671,2.73152 -14.68874,4.43933 -6.85702,1.29804 -7.23197,1.32193 -7.46926,0.47585 -0.0606,-0.21597 0.0215,-1.51363 0.1823,-2.88369 0.16084,-1.37006 0.29733,-3.38114 0.30332,-4.46908 0.01,-1.78605 -0.0346,-2.08969 -0.45812,-3.12808 -0.8878,-2.17694 -2.78149,-3.78701 -5.06541,-4.30675 -1.47449,-0.33554 -57.669956,-0.53839 -58.062082,-0.20959 -0.210285,0.17633 -0.247782,4.87166 -0.284057,35.56847 l -0.04179,35.36532 -0.461508,0.52233 -0.461507,0.52234 -12.939154,0.0489 c -12.75342,0.0482 -12.947063,0.0435 -13.490191,-0.3338 z M 47.790074,50.579734 C 47.600365,50.321066 47.561606,47.541516 47.561606,34.195347 V 18.122474 l 0.378937,-0.42912 c 0.374887,-0.424533 0.431823,-0.429731 5.326971,-0.486372 2.721419,-0.03149 5.195066,-0.0057 5.496994,0.05732 0.376001,0.07847 0.652712,0.304254 0.878258,0.716606 0.320042,0.585115 0.328006,0.924992 0.283379,12.093619 -0.04465,11.174494 -0.05535,11.511936 -0.387826,12.229105 -0.379454,0.818514 -0.406305,0.841163 -6.452979,5.443241 -4.240357,3.227303 -4.790231,3.521475 -5.295266,2.832863 z"
         id="path6" /><path
         style="fill:#cab589"
         d="m 116.71619,205.57117 -0.4866,-0.55067 v -24.93972 c 0,-20.67589 -0.0385,-24.99935 -0.22539,-25.28854 -0.35222,-0.54512 -1.50544,-0.63647 -8.22285,-0.65136 -5.97042,-0.0132 -6.21331,-0.0278 -6.53387,-0.39053 -0.32507,-0.36788 -0.33293,-0.62796 -0.33293,-11.02062 0,-10.39266 0.008,-10.65273 0.33293,-11.02062 0.30307,-0.34296 0.55324,-0.37655 2.78834,-0.37429 1.35047,0.001 6.50057,-0.0837 11.44466,-0.18899 4.9441,-0.10531 16.77996,-0.27843 26.30192,-0.38471 22.73841,-0.25381 25.07654,-0.37585 30.87979,-1.6119 7.02917,-1.49715 9.98765,-2.74777 13.50549,-5.70912 2.22579,-1.87368 2.42467,-1.99767 2.73576,-1.70548 0.33256,0.31234 0.30073,1.14641 -0.17218,4.51128 -0.91645,6.52076 -2.08109,9.59585 -5.42247,14.31739 -2.15583,3.04628 -3.99876,4.78659 -7.73341,7.30275 -2.32159,1.56413 -3.72742,2.28992 -6.48889,3.35003 -3.55599,1.36511 -5.32979,1.7441 -9.6585,2.0636 -2.10581,0.15543 -4.8775,0.37374 -6.15931,0.48513 -1.2818,0.11139 -3.73719,0.26437 -5.45642,0.33997 -2.81512,0.12378 -3.15911,0.17504 -3.46013,0.51569 -0.33143,0.37508 -0.33417,0.58986 -0.32544,25.55978 0.009,25.00909 0.006,25.18412 -0.32702,25.56156 -0.33108,0.37467 -0.52034,0.38003 -13.41635,0.38003 h -13.08053 z m -60.331788,-2.24776 c -4.695074,-3.35774 -7.882838,-5.8385 -8.194817,-6.37731 -0.28024,-0.484 -0.299219,-3.28881 -0.378277,-55.90354 -0.0647,-43.059731 -0.128393,-55.483119 -0.286047,-55.794316 -0.447762,-0.883848 -1.161299,-0.655999 -3.632489,1.159936 -2.123303,1.560294 -8.026535,5.957807 -12.312079,9.171676 -2.01426,1.510561 -3.953729,2.903457 -4.309929,3.095325 l -0.647637,0.348852 -0.402183,-0.56516 C 25.639268,97.641483 20.67705,86.678318 20.67705,86.210594 c 0,-0.759758 0.773538,-1.400895 8.777471,-7.275092 1.077837,-0.79104 2.821176,-2.070459 3.874085,-2.843152 10.851181,-7.963309 12.661265,-9.306878 25.509899,-18.935195 5.425484,-4.065669 11.086777,-8.261981 12.580651,-9.325139 3.65428,-2.600672 10.697334,-7.812967 20.839065,-15.422197 4.623644,-3.46907 8.877189,-6.642898 9.452319,-7.052953 0.57512,-0.410054 1.39777,-0.997924 1.82811,-1.306378 1.43401,-1.027873 1.10337,-1.207206 9.86851,5.35237 4.31888,3.232125 11.5712,8.595814 16.11626,11.919309 4.54507,3.323494 8.97541,6.568224 9.8452,7.210509 0.86979,0.642285 2.78001,2.042512 4.24493,3.111615 1.46492,1.069103 3.63732,2.662078 4.82757,3.539945 1.19024,0.877866 3.21283,2.368467 4.49463,3.312448 1.2818,0.94398 8.25852,6.167721 15.50381,11.608313 7.2453,5.440592 14.12342,10.570178 15.28471,11.399079 3.05948,2.183775 3.86811,2.919993 3.20718,2.919993 -0.11739,0 -1.37214,-0.622495 -2.78833,-1.383322 -10.11145,-5.432202 -15.49428,-8.289349 -21.88517,-11.616398 -8.19996,-4.268837 -20.00559,-10.452949 -22.49987,-11.786047 -0.90088,-0.481488 -2.61181,-1.385776 -3.80205,-2.009529 -1.19025,-0.623752 -2.95064,-1.556744 -3.912,-2.073314 -0.96135,-0.516571 -2.60938,-1.385403 -3.66229,-1.930738 -1.05291,-0.545335 -4.08678,-2.155002 -6.74195,-3.577038 -2.65516,-1.422036 -6.17595,-3.30754 -7.82398,-4.19001 -1.64804,-0.882469 -3.37676,-1.795261 -3.84161,-2.028426 -0.46486,-0.233165 -1.1542,-0.677249 -1.53186,-0.986852 -1.43281,-1.174586 -3.46038,-1.300604 -5.27712,-0.327986 -0.54174,0.290031 -3.760543,2.618246 -7.152886,5.173811 -3.392343,2.555566 -6.954457,5.225694 -7.915809,5.933619 -0.961352,0.707925 -2.79666,2.064991 -4.078462,3.015703 -1.281802,0.950712 -3.304387,2.449538 -4.494632,3.330725 -1.190245,0.881187 -4.0743,3.027041 -6.409011,4.768565 -4.58376,3.419148 -10.36465,7.673677 -11.345344,8.349768 -0.873711,0.602337 -1.755337,1.776856 -1.960077,2.611254 -0.12292,0.500945 -0.1769,20.322399 -0.177546,65.195106 -7.41e-4,51.45973 -0.04293,64.47321 -0.209013,64.46483 -0.114447,-0.006 -1.481564,-0.92124 -3.038038,-2.03438 z m 14.140593,-19.62078 c -0.91889,-0.3233 -1.310933,-1.00295 -1.405069,-2.43586 -0.04618,-0.70298 -0.04651,-22.1988 -7.35e-4,-47.76849 l 0.08323,-46.490343 0.469967,-0.397098 0.469967,-0.397097 h 45.058995 c 49.72474,0 45.53239,-0.09516 50.43365,1.144791 5.67061,1.43459 10.50428,4.188088 14.60147,8.317719 3.38572,3.412525 5.0805,6.124288 6.62514,10.600668 1.048,3.03712 1.34321,4.69615 1.24525,6.99826 -0.0732,1.72104 -0.13309,1.98811 -0.77328,3.45018 -1.50292,3.43238 -4.88372,6.01707 -9.87144,7.5469 -1.64826,0.50555 -14.77837,3.10396 -15.68475,3.10396 -1.03655,0 -1.10564,-0.4344 -0.6691,-4.20666 0.15239,-1.31683 0.23851,-3.09452 0.20235,-4.17654 -0.0572,-1.71113 -0.11469,-1.99291 -0.627,-3.07308 -0.91965,-1.939 -2.67741,-3.43592 -4.68684,-3.99136 -0.49664,-0.13728 -9.91036,-0.239 -29.40538,-0.31776 -27.492789,-0.11108 -28.68857,-0.10183 -29.007023,0.22431 -0.32963,0.33759 -0.332145,0.60743 -0.332145,35.64203 v 35.30186 l -0.408603,0.4624 -0.408602,0.4624 -11.618699,0.001 c -6.390284,7.4e-4 -12.105617,0.0407 -12.70074,0.0889 -0.595122,0.0482 -1.3109,0.007 -1.590617,-0.0914 z M 48.011069,50.476798 C 47.85884,50.304525 47.811308,46.44951 47.811308,34.275547 c 0,-15.724004 0.0052,-15.98111 0.332936,-16.351959 0.319038,-0.361047 0.554892,-0.376774 5.650467,-0.376774 5.306275,0 5.31808,8.87e-4 5.576672,0.418691 0.227771,0.368006 0.258699,1.810427 0.255485,11.915454 -0.0034,10.739244 -0.02376,11.546839 -0.308706,12.256738 -0.252837,0.629892 -0.686738,1.052224 -2.534979,2.467393 -1.22646,0.939082 -3.521024,2.69525 -5.09903,3.902596 -1.578006,1.207347 -3.005052,2.195176 -3.171212,2.195176 -0.166161,0 -0.392003,-0.101729 -0.501872,-0.226064 z"
         id="path5" /><path
         style="fill:#9d9d9d"
         d="m 116.71619,205.57117 -0.4866,-0.55067 v -24.93972 c 0,-20.67589 -0.0385,-24.99935 -0.22539,-25.28854 -0.35222,-0.54512 -1.50544,-0.63647 -8.22285,-0.65136 -5.97042,-0.0132 -6.21331,-0.0278 -6.53387,-0.39053 -0.32507,-0.36788 -0.33293,-0.62796 -0.33293,-11.02062 0,-10.39266 0.008,-10.65273 0.33293,-11.02062 0.30307,-0.34296 0.55324,-0.37655 2.78834,-0.37429 1.35047,0.001 6.50057,-0.0837 11.44466,-0.18899 4.9441,-0.10531 16.77996,-0.27843 26.30192,-0.38471 22.73841,-0.25381 25.07654,-0.37585 30.87979,-1.6119 7.02917,-1.49715 9.98765,-2.74777 13.50549,-5.70912 2.22579,-1.87368 2.42467,-1.99767 2.73576,-1.70548 0.33256,0.31234 0.30073,1.14641 -0.17218,4.51128 -0.91645,6.52076 -2.08109,9.59585 -5.42247,14.31739 -2.15583,3.04628 -3.99876,4.78659 -7.73341,7.30275 -2.32159,1.56413 -3.72742,2.28992 -6.48889,3.35003 -3.55599,1.36511 -5.32979,1.7441 -9.6585,2.0636 -2.10581,0.15543 -4.8775,0.37374 -6.15931,0.48513 -1.2818,0.11139 -3.73719,0.26437 -5.45642,0.33997 -2.81512,0.12378 -3.15911,0.17504 -3.46013,0.51569 -0.33143,0.37508 -0.33417,0.58986 -0.32544,25.55978 0.009,25.00909 0.006,25.18412 -0.32702,25.56156 -0.33108,0.37467 -0.52034,0.38003 -13.41635,0.38003 H 117.20279 Z M 70.524995,183.70263 c -0.91889,-0.3233 -1.310933,-1.00295 -1.405069,-2.43586 -0.04618,-0.70298 -0.04651,-22.1988 -7.35e-4,-47.76849 l 0.08323,-46.490343 0.469967,-0.397098 0.469967,-0.397097 h 45.058995 c 49.72474,0 45.53239,-0.09516 50.43365,1.144791 5.67061,1.43459 10.50428,4.188088 14.60147,8.317719 3.38572,3.412525 5.0805,6.124288 6.62514,10.600668 1.048,3.03712 1.34321,4.69615 1.24525,6.99826 -0.0732,1.72104 -0.13309,1.98811 -0.77328,3.45018 -1.50292,3.43238 -4.88372,6.01707 -9.87144,7.5469 -1.64826,0.50555 -14.77837,3.10396 -15.68475,3.10396 -1.03655,0 -1.10564,-0.4344 -0.6691,-4.20666 0.15239,-1.31683 0.23851,-3.09452 0.20235,-4.17654 -0.0572,-1.71113 -0.11469,-1.99291 -0.627,-3.07308 -0.91965,-1.939 -2.67741,-3.43592 -4.68684,-3.99136 -0.49664,-0.13728 -9.91036,-0.239 -29.40538,-0.31776 -27.492789,-0.11108 -28.68857,-0.10183 -29.007023,0.22431 -0.32963,0.33759 -0.332145,0.60743 -0.332145,35.64203 v 35.30186 l -0.408603,0.4624 -0.408602,0.4624 -11.618699,0.001 c -6.390284,7.4e-4 -12.105617,0.0407 -12.70074,0.0889 -0.595122,0.0482 -1.3109,0.007 -1.590617,-0.0914 z"
         id="path4" /><path
         style="fill:#606060"
         d="m 127.72527,205.98855 c -10.5489,-0.0579 -10.56176,-0.0584 -10.94289,-0.46361 l -0.38158,-0.40567 -0.044,-25.13597 -0.044,-25.13596 -0.39299,-0.36011 c -0.3722,-0.34105 -0.7431,-0.36011 -7.00843,-0.36011 -6.76868,0 -7.55668,-0.0744 -7.74084,-0.73105 -0.0498,-0.17753 -0.1043,-5.0557 -0.12113,-10.84038 -0.0284,-9.75561 -0.01,-10.53477 0.2559,-10.75467 0.20872,-0.17271 1.74244,-0.26874 5.64938,-0.3537 18.97887,-0.41275 23.99587,-0.4929 30.9157,-0.4939 9.41562,-0.001 23.76101,-0.30294 27.36143,-0.57519 3.16401,-0.23925 6.82147,-0.86604 10.48064,-1.79611 5.15892,-1.31126 7.23404,-2.31008 10.63795,-5.12035 1.17905,-0.97342 2.24175,-1.72728 2.36156,-1.67525 0.38346,0.16652 0.38351,0.72395 3.5e-4,3.73521 -0.77333,6.07753 -1.97633,9.65369 -4.58459,13.62866 -2.0547,3.13134 -3.97707,5.2039 -6.72123,7.24632 -5.15436,3.83629 -10.65947,6.0979 -16.06415,6.59948 -3.60723,0.33477 -9.77993,0.77632 -13.22333,0.94591 -2.86893,0.1413 -3.37635,0.21232 -3.74553,0.52423 l -0.42702,0.3608 -0.0422,25.34227 c -0.0388,23.27105 -0.0646,25.36335 -0.31653,25.60025 -0.31919,0.30021 -0.52501,0.30305 -15.86247,0.2189 z M 70.3677,183.52117 c -0.183114,-0.0841 -0.507922,-0.36615 -0.721795,-0.62676 l -0.38886,-0.47385 -0.02731,-47.57983 -0.02731,-47.579825 0.379063,-0.429388 0.379062,-0.429388 17.432997,-0.142451 c 9.588148,-0.07835 29.718323,-0.116627 44.733723,-0.08506 26.94948,0.05665 27.32857,0.06255 29.46481,0.458852 7.4002,1.37283 11.85559,3.3323 16.56355,7.284611 2.02064,1.696323 4.99061,5.062006 6.13267,6.949799 1.66858,2.7581 3.37083,7.56204 3.69045,10.41487 0.67887,6.0594 -3.08428,10.57806 -10.7387,12.89464 -2.52693,0.76476 -15.36944,3.20191 -15.82945,3.00399 -0.54788,-0.23573 -0.58491,-0.60216 -0.29062,-2.87602 0.15018,-1.16037 0.28039,-3.21272 0.28934,-4.56078 0.016,-2.39985 0.005,-2.47694 -0.52328,-3.69332 -0.92754,-2.13559 -2.95831,-3.83639 -5.12106,-4.28897 -0.471,-0.0986 -13.21145,-0.23265 -29.38085,-0.30921 l -28.549236,-0.1352 -0.332936,0.41927 c -0.329808,0.41533 -0.333718,0.75194 -0.41617,35.8314 -0.08175,34.78018 -0.089,35.4169 -0.406369,35.67951 -0.177725,0.14706 -0.514822,0.26391 -0.749105,0.25968 -0.234284,-0.004 -6.006804,0.0315 -12.827824,0.0793 -6.82102,0.0479 -12.551675,0.0182 -12.73479,-0.0659 z"
         id="path3" /><path
         style="fill:#333333"
         d="m 117.30585,205.75419 c -0.87359,-0.40072 -0.8231,1.04512 -0.87127,-24.95215 -0.0246,-13.27243 -0.0433,-24.57481 -0.0416,-25.11638 0.005,-1.69509 0.26645,-1.63696 -7.8467,-1.74692 -5.38979,-0.0731 -6.99813,-0.14914 -7.16581,-0.339 -0.33985,-0.38481 -0.40434,-21.09099 -0.0673,-21.61294 0.27975,-0.43324 0.75349,-0.44503 32.56205,-0.81042 32.10632,-0.3688 34.33394,-0.50436 42.30018,-2.57406 4.77748,-1.24123 7.06285,-2.37009 10.29783,-5.08663 1.0497,-0.88147 1.9968,-1.60268 2.10465,-1.60268 0.38143,0 0.39197,0.61823 0.0566,3.32135 -0.85085,6.85837 -2.12035,10.35896 -5.49572,15.15423 -2.13599,3.03453 -4.69448,5.37166 -8.61959,7.8738 -2.43036,1.54929 -6.84206,3.39518 -9.69097,4.05477 -2.23152,0.51665 -6.75954,0.92534 -16.60958,1.49916 l -3.71833,0.21661 -0.41906,0.55135 -0.41907,0.55135 0.12353,24.99614 0.12352,24.99613 -0.35591,0.40277 -0.35591,0.40278 -12.77641,-0.0119 c -7.02702,-0.007 -12.92883,-0.0819 -13.11512,-0.16732 z m -47.39331,-22.78845 -0.543647,-0.5497 -0.04259,-47.49636 -0.04259,-47.496355 0.389027,-0.440251 0.389028,-0.44025 19.546466,-0.132467 c 10.750556,-0.07286 30.932866,-0.101131 44.849576,-0.06283 24.9574,0.06869 25.33305,0.07517 27.49455,0.474956 2.66213,0.492374 5.90891,1.381429 7.85285,2.150322 6.2077,2.455348 12.35631,7.892943 15.19987,13.442185 0.80402,1.56905 1.90759,4.54212 2.40404,6.47658 1.92913,7.51709 -1.67303,12.69461 -10.64265,15.29709 -0.71826,0.2084 -4.38888,0.97199 -8.15693,1.69687 -7.11972,1.36964 -7.60011,1.40707 -7.60011,0.59207 0,-0.18785 0.12029,-1.35531 0.2673,-2.59436 0.38042,-3.20612 0.38946,-5.9698 0.0234,-7.15086 -0.82622,-2.66565 -3.23363,-4.73593 -6.03383,-5.18885 -0.54935,-0.0889 -13.68389,-0.19337 -29.18789,-0.23226 -27.484852,-0.0689 -28.199113,-0.0618 -28.590847,0.28695 l -0.401771,0.35764 v 35.10817 c 0,21.14966 -0.06146,35.29111 -0.15458,35.56829 -0.0896,0.26669 -0.379956,0.54902 -0.690712,0.67161 -0.378256,0.14923 -4.25358,0.21151 -13.160221,0.21151 H 70.456187 Z"
         id="path2" /><path
         style="fill:#000000"
         d="m 117.2284,205.50192 c -0.40417,-0.23073 -0.41921,-0.31079 -0.52136,-2.77592 -0.0579,-1.39609 -0.11403,-12.76003 -0.12485,-25.25319 l -0.0197,-22.71485 -0.42943,-0.45671 -0.42943,-0.45671 -6.92961,-0.0532 c -6.11614,-0.047 -6.96465,-0.0891 -7.2281,-0.35888 -0.28017,-0.28694 -0.29832,-0.94221 -0.29593,-10.68485 0.002,-6.20483 0.066,-10.49281 0.16025,-10.66174 0.18247,-0.32697 2.50398,-0.3802 31.04992,-0.71199 32.16749,-0.37389 34.26373,-0.46966 40.61816,-1.85568 6.92515,-1.5105 9.44678,-2.59533 13.29964,-5.72162 1.41477,-1.14797 2.18925,-1.66801 2.29906,-1.54374 0.23487,0.2658 -0.42259,5.24022 -1.06308,8.04335 -0.88576,3.87658 -1.95376,6.21757 -4.46916,9.79611 -2.15588,3.06706 -3.44886,4.35294 -6.72718,6.69024 -3.26417,2.32722 -6.39204,3.83713 -10.33751,4.99022 -2.45105,0.71633 -3.92358,0.91733 -9.73179,1.3284 -2.24315,0.15876 -5.16467,0.36795 -6.49225,0.46488 -1.32758,0.0969 -2.96429,0.17804 -3.63713,0.18026 -1.29845,0.004 -2.24886,0.35912 -2.43541,0.90929 -0.058,0.17105 -0.0992,11.60063 -0.0916,25.39907 0.0126,22.75041 -0.0109,25.11613 -0.25224,25.38922 -0.23926,0.27077 -1.5543,0.30088 -13.03064,0.29838 -9.93679,-0.002 -12.85671,-0.0554 -13.18068,-0.24036 z m -47.289675,-22.72554 -0.486598,-0.55067 v -47.39373 c 0,-46.110235 0.0085,-47.403303 0.312515,-47.747388 0.299604,-0.339053 0.961526,-0.3591 16.022529,-0.48527 8.640508,-0.07238 28.856809,-0.100964 44.925119,-0.06351 32.11188,0.07485 29.74226,-0.0082 34.62531,1.213115 6.57885,1.64542 11.64207,4.738741 16.13333,9.8565 2.47999,2.825933 3.89258,5.378663 5.23989,9.469143 1.73943,5.28097 1.3823,8.80687 -1.20265,11.87375 -2.10195,2.49384 -5.37822,4.25555 -10.01673,5.3862 -2.85673,0.69633 -13.68316,2.67829 -14.00287,2.56345 -0.37685,-0.13535 -0.38232,-0.34626 -0.0783,-3.01888 0.67218,-5.90878 0.44392,-7.4655 -1.43603,-9.7933 -1.41763,-1.75535 -3.20088,-2.6357 -5.6723,-2.80028 -0.99295,-0.0661 -55.073714,-0.18467 -56.425449,-0.12368 -0.160226,0.007 -0.44114,0.18269 -0.624255,0.38991 -0.330535,0.37406 -0.332952,0.62969 -0.335208,35.46379 -0.0013,19.29785 -0.04505,35.26742 -0.09734,35.48791 -0.05229,0.2205 -0.279522,0.49602 -0.504963,0.61226 -0.291546,0.15033 -4.088217,0.21135 -13.149656,0.21135 H 70.425324 Z"
         id="path1" /></g></g></svg>
