<?xml version="1.0" encoding="UTF-8" standalone="no"?>
<!-- Created with Inkscape (http://www.inkscape.org/) -->

<svg
   width="208.9584mm"
   height="230.02817mm"
   viewBox="0 0 208.9584 230.02817"
   version="1.1"
   id="svg1"
   xml:space="preserve"
   sodipodi:docname="logo-no-words.svg"
   xmlns:inkscape="http://www.inkscape.org/namespaces/inkscape"
   xmlns:sodipodi="http://sodipodi.sourceforge.net/DTD/sodipodi-0.dtd"
   xmlns="http://www.w3.org/2000/svg"
   xmlns:svg="http://www.w3.org/2000/svg"><sodipodi:namedview
     id="namedview1"
     pagecolor="#ffffff"
     bordercolor="#000000"
     borderopacity="0.25"
     inkscape:showpageshadow="2"
     inkscape:pageopacity="0.0"
     inkscape:pagecheckerboard="0"
     inkscape:deskcolor="#d1d1d1"
     inkscape:document-units="mm" /><defs
     id="defs1" /><g
     inkscape:label="Layer 1"
     inkscape:groupmode="layer"
     id="layer1"
     transform="translate(-0.45068106,-7.4835009)"><path
       style="display:none;fill:#ede6d7;stroke-width:1.22467"
       d="m 133.15725,237.33316 -13.20792,-0.11763 -0.46835,-0.5209 -0.46834,-0.52089 -0.10279,-30.51412 c -0.0829,-24.59491 -0.15463,-30.57179 -0.36988,-30.8114 -0.2072,-0.23066 -2.19949,-0.3229 -8.89031,-0.41162 l -8.62325,-0.11436 -0.51549,-0.57354 -0.515491,-0.57355 -0.0404,-12.91992 c -0.04287,-13.69092 -0.03459,-13.81718 0.914251,-14.06111 0.73039,-0.18777 22.29912,-0.56425 45.90724,-0.80132 32.80937,-0.32947 36.30786,-0.53619 44.93631,-2.65534 7.13987,-1.75353 9.54297,-2.87685 14.08979,-6.58622 1.32567,-1.08148 2.57338,-1.96634 2.77271,-1.96634 0.98002,0 1.06075,1.07164 0.42711,5.66917 -0.47045,3.41335 -1.23053,6.92214 -1.98336,9.1558 -1.45947,4.33026 -6.12402,11.14688 -9.64328,14.09234 -3.97859,3.32992 -8.46724,5.97444 -12.99426,7.65569 -4.27852,1.58897 -7.37415,2.23733 -12.08394,2.53094 -2.13843,0.1333 -5.74773,0.39384 -8.02067,0.57895 -2.27295,0.18511 -5.01182,0.34489 -6.08638,0.35504 -2.49839,0.0236 -4.09941,0.27849 -4.33357,0.68991 -0.10662,0.18728 -0.18594,13.20655 -0.18775,30.814 -0.002,20.11878 -0.0739,30.63676 -0.21123,30.92205 -0.32665,0.67875 -1.53003,0.91148 -4.41923,0.85466 -1.47045,-0.0289 -8.61711,-0.1055 -15.88147,-0.17025 z m -87.256086,-2.39152 c -1.753235,-1.19146 -4.946078,-3.48289 -7.095205,-5.09205 -3.418602,-2.55967 -3.965401,-3.05341 -4.370235,-3.94618 l -0.462732,-1.02044 -0.0049,-66.33255 c -0.0028,-37.85197 -0.08338,-66.708538 -0.187675,-67.208279 -0.100526,-0.481664 -0.238296,-0.937504 -0.306163,-1.012975 -0.295686,-0.328819 -2.112029,0.949456 -17.760638,12.499274 -3.134885,2.31377 -6.0073586,4.3509 -6.3832755,4.52696 -1.3777779,0.64527 -1.6867014,0.26009 -4.2533648,-5.30328 C 3.9743336,99.662173 2.4823619,96.460671 1.7614434,94.937668 1.0405237,93.414665 0.45068106,91.87773 0.45068106,91.522256 c 0,-1.058104 1.51082794,-2.401103 7.82492214,-6.955698 3.2182388,-2.321438 7.0544448,-5.090477 8.5248998,-6.153424 1.470456,-1.062945 3.460198,-2.500682 4.42165,-3.194971 8.959408,-6.469818 16.542277,-12.004297 26.42707,-19.288222 10.221105,-7.531746 14.887309,-10.916958 19.229035,-13.95017 2.676243,-1.869672 7.402272,-5.323207 24.791173,-18.116088 13.321029,-9.800187 12.711889,-9.399884 13.901489,-9.135306 0.37344,0.08306 4.18997,2.74682 8.59901,6.00172 4.36014,3.218807 9.08437,6.687291 10.49826,7.707743 1.4139,1.020452 3.68129,2.659769 5.03862,3.642927 1.35735,0.983159 4.27255,3.082663 6.47824,4.665565 4.46926,3.207356 6.61572,4.752724 12.40421,8.93054 2.17852,1.572331 4.74413,3.418764 5.70136,4.103184 6.50915,4.653999 17.78429,12.89848 29.36801,21.47414 7.42723,5.498527 15.55754,11.46941 18.06735,13.268629 2.50981,1.799219 4.80659,3.522044 5.10394,3.8285 0.65994,0.680139 0.63297,1.544323 -0.0515,1.652455 -0.52477,0.08289 -1.67721,-0.48901 -11.606,-5.759602 -3.92248,-2.082201 -9.33644,-4.910406 -12.031,-6.284898 -2.69458,-1.374492 -7.44425,-3.805589 -10.55482,-5.402436 -3.11059,-1.596847 -6.13152,-3.145823 -6.71318,-3.442167 -0.58167,-0.296346 -4.32979,-2.232799 -8.32916,-4.303229 -3.99937,-2.070431 -10.55697,-5.460161 -14.57244,-7.532733 -8.84874,-4.567243 -19.1171,-9.934448 -25.91292,-13.544508 -2.77124,-1.472134 -5.36254,-2.8086 -5.75843,-2.969923 -0.39589,-0.161325 -1.203,-0.656769 -1.79355,-1.100986 -1.43756,-1.081321 -2.32045,-1.372851 -3.83097,-1.264993 -1.85835,0.132695 -3.2007,0.93197 -9.80741,5.839602 -3.219526,2.391548 -7.658336,5.662325 -9.864018,7.268394 -2.205684,1.60607 -7.203176,5.255459 -11.10554,8.109752 -3.902363,2.854295 -8.710735,6.365936 -10.685273,7.803648 -1.974538,1.437712 -5.142648,3.7461 -7.040245,5.129753 -1.897598,1.383652 -4.089754,2.967369 -4.871457,3.519371 -0.96361,0.680455 -1.57733,1.306441 -1.905884,1.943974 l -0.484604,0.940333 -0.102824,79.013698 c -0.09109,69.99328 -0.138047,79.02097 -0.411316,79.0774 -0.169668,0.0351 -1.742953,-0.91113 -3.496188,-2.10259 z m 16.251099,-25.00551 c -0.382069,-0.21653 -0.870149,-0.66013 -1.084622,-0.98579 -0.379737,-0.5766 -0.392609,-2.098 -0.49146,-58.09052 -0.09756,-55.26313 -0.08697,-57.529529 0.272502,-58.298869 0.26849,-0.574621 0.601508,-0.883061 1.18034,-1.093227 1.206161,-0.437941 108.705547,-0.528271 111.688667,-0.09385 10.49503,1.528344 17.74823,4.847167 24.32026,11.128136 3.2426,3.099 5.59325,6.29057 7.11874,9.66541 1.97073,4.35984 3.02084,8.19745 3.05216,11.15406 0.0387,3.65009 -0.90077,6.15396 -3.31088,8.82439 -2.45717,2.72257 -5.5627,4.49996 -10.32837,5.91122 -3.00628,0.89024 -18.03788,3.71907 -19.2839,3.62908 -1.47489,-0.10659 -1.54913,-0.45934 -1.02934,-4.89177 0.7626,-6.50278 0.35501,-8.82602 -1.97911,-11.2809 -1.23977,-1.30391 -2.6837,-2.11889 -4.42114,-2.49539 -1.55818,-0.33767 -71.134181,-0.61995 -71.568703,-0.29038 -0.271758,0.20612 -0.320731,5.36363 -0.411317,43.3177 -0.111089,46.54677 -0.03281,43.67272 -1.196745,43.93482 -0.303242,0.0683 -7.589588,0.17486 -16.19188,0.23685 -14.510412,0.10453 -15.690724,0.0843 -16.335202,-0.28097 z M 34.416316,48.528963 33.972992,47.902214 V 28.361374 8.8205325 l 0.601156,-0.6685164 0.601154,-0.6685152 h 6.6104 c 4.140524,0 6.758235,0.087979 7.006068,0.2354823 1.019103,0.6065219 1.017309,0.578868 1.011106,15.5908308 l -0.0058,14.019405 -0.466218,1.013717 c -0.291948,0.634795 -0.847119,1.306021 -1.485228,1.795706 -6.456708,4.95489 -11.784465,8.800238 -12.32892,8.898491 -0.540128,0.09747 -0.73598,0.007 -1.1004,-0.50817 z"
       id="path7" /><path
       style="display:none;fill:#d6caad;stroke-width:1.22467"
       d="m 120.21985,237.00042 c -0.35403,-0.17134 -0.72421,-0.45033 -0.82263,-0.61999 -0.0985,-0.16965 -0.2252,-14.01841 -0.28176,-30.77501 -0.0974,-28.8474 -0.12231,-30.48825 -0.46981,-30.87488 -0.33716,-0.37516 -1.06764,-0.41762 -8.99208,-0.52268 l -8.62512,-0.11436 -0.46819,-0.52081 -0.46818,-0.52081 -0.0566,-12.62557 c -0.05806,-12.96398 -0.0227,-13.63196 0.7438,-14.04038 0.38146,-0.20326 9.13593,-0.35621 41.78118,-0.72997 23.29982,-0.26675 35.84918,-0.5744 39.3634,-0.96501 4.73821,-0.52666 12.5114,-2.27183 16.13917,-3.62344 3.01578,-1.1236 4.69391,-2.17206 8.52633,-5.32715 2.72785,-2.24572 3.0212,-1.88419 2.41067,2.97093 -0.74132,5.89526 -1.87541,10.22707 -3.5085,13.40119 -1.34587,2.61586 -3.97097,6.40827 -5.95427,8.60197 -2.9109,3.21972 -8.59147,7.14594 -13.06878,9.03271 -5.17089,2.17903 -8.44958,2.97653 -13.67627,3.32652 -1.86635,0.12497 -5.33682,0.37522 -7.71218,0.55609 -2.37535,0.18088 -5.66073,0.39192 -7.30087,0.46899 -3.21378,0.15099 -4.02586,0.35775 -4.23121,1.07725 -0.0725,0.25386 -0.063,13.86106 0.0211,30.23824 0.11514,22.43822 0.0938,29.97559 -0.0867,30.58374 -0.14256,0.48037 -0.44914,0.91326 -0.75739,1.06944 -0.81948,0.41521 -31.63991,0.35167 -32.50508,-0.067 z m -75.038488,-2.93669 c -6.427429,-4.48448 -10.024234,-7.28729 -10.483215,-8.16903 -0.415228,-0.7977 -0.417022,-1.03263 -0.519496,-68.03909 -0.05656,-36.98125 -0.177701,-67.367279 -0.26921,-67.524512 -0.09151,-0.157234 -0.372072,-0.285879 -0.623473,-0.285879 -0.712536,0 -1.434935,0.507393 -16.649772,11.694331 -4.277706,3.14524 -7.4224981,5.31004 -7.8173973,5.38131 -0.4959752,0.0895 -0.7556425,0.003 -1.0416132,-0.34887 -0.2095153,-0.25745 -1.851135,-3.63265 -3.6480448,-7.500438 -2.2085291,-4.753786 -3.26710716,-7.268002 -3.26710716,-7.759669 0,-0.886591 0.75769206,-1.704652 3.29110406,-3.553319 C 5.6715906,86.850527 13.606672,81.103082 16.594881,78.946907 29.330812,69.757159 36.519627,64.51066 53.667004,51.891157 57.483298,49.08258 62.086459,45.745022 63.896251,44.474365 68.456956,41.272286 75.521285,36.132037 87.341278,27.414956 104.79124,14.545851 104.23185,14.928424 105.3538,15.09577 c 0.61852,0.09225 3.04378,1.767706 10.42019,7.198613 5.28772,3.893104 17.52674,12.770489 27.19781,19.727522 23.20481,16.692728 23.00687,16.54865 39.28071,28.592336 7.74816,5.734144 16.26948,11.986141 18.93624,13.893324 2.66677,1.907184 5.10132,3.72799 5.4101,4.046235 0.62281,0.641877 0.55799,1.034014 -0.17094,1.034014 -0.2636,0 -3.79803,-1.760681 -7.85428,-3.912624 -4.05625,-2.151943 -9.96629,-5.249119 -13.13342,-6.882614 -3.16714,-1.633496 -6.91525,-3.566331 -8.32916,-4.29519 -1.4139,-0.728859 -5.49041,-2.818431 -9.05892,-4.643493 -6.82031,-3.488147 -16.00951,-8.227195 -21.37848,-11.0253 -1.75324,-0.913719 -5.91781,-3.075243 -9.25461,-4.803385 -6.77459,-3.508586 -24.57314,-12.848763 -26.32425,-13.814225 -0.62211,-0.342999 -1.58731,-0.91927 -2.14488,-1.280602 -1.85086,-1.199431 -4.14089,-1.170545 -6.2871,0.0793 -0.62211,0.36229 -5.110606,3.591135 -9.97442,7.175211 -4.863816,3.584076 -13.054151,9.585771 -18.200745,13.337101 -5.146595,3.751329 -11.53228,8.410809 -14.190411,10.354402 -2.658132,1.943592 -5.712154,4.150589 -6.786719,4.904439 -1.995404,1.399855 -3.136708,2.442863 -3.564482,3.257485 -0.181352,0.345352 -0.265383,19.813714 -0.343022,79.471111 -0.09109,69.99446 -0.138043,79.02073 -0.411317,79.07541 -0.169668,0.034 -1.974318,-1.10056 -4.010332,-2.52111 z m 16.800175,-24.40969 c -1.372928,-0.93711 -1.272986,3.71135 -1.272986,-59.20905 0,-35.84777 0.07341,-57.382853 0.196822,-57.743846 0.108248,-0.31663 0.501573,-0.751131 0.874047,-0.965556 0.632903,-0.364349 4.284284,-0.391259 55.7936,-0.411183 l 55.11638,-0.02132 2.87921,0.512508 c 9.99702,1.779493 16.58501,5.061532 23.03372,11.475057 3.41519,3.39655 5.71048,6.89294 7.3509,11.19752 2.51738,6.60582 2.7855,10.34984 1.03081,14.39393 -0.79262,1.82677 -3.40643,4.67742 -5.47857,5.97499 -3.75682,2.35252 -7.00126,3.31608 -18.1468,5.38938 -8.47132,1.57583 -8.93454,1.60483 -9.22769,0.57768 -0.0749,-0.26219 0.0266,-1.83756 0.22521,-3.50082 0.19871,-1.66326 0.36733,-4.10473 0.37473,-5.4255 0.0124,-2.16828 -0.0427,-2.5369 -0.56597,-3.79751 -1.09681,-2.64282 -3.43631,-4.59746 -6.25792,-5.22843 -1.82162,-0.40735 -71.246768,-0.65361 -71.731209,-0.25444 -0.259791,0.21406 -0.306115,5.91423 -0.35093,43.18039 l -0.05163,42.93378 -0.570157,0.63411 -0.570156,0.63412 -15.985324,0.0594 c -15.755863,0.0585 -15.995094,0.0528 -16.666086,-0.40524 z M 34.563734,48.271828 C 34.329364,47.957803 34.28148,44.583407 34.28148,28.381056 V 8.868464 l 0.468147,-0.520955 c 0.463144,-0.5153863 0.533484,-0.5216967 6.581061,-0.5904594 3.362102,-0.038229 6.418102,-0.00692 6.79111,0.069587 0.46452,0.095263 0.806375,0.3693667 1.08502,0.8699652 0.395387,0.7103341 0.405226,1.1229474 0.350093,14.6817462 -0.05516,13.565922 -0.06838,13.975579 -0.479129,14.846228 -0.468786,0.993682 -0.501959,1.021178 -7.972156,6.608136 -5.238633,3.917971 -5.91796,4.275098 -6.541892,3.439118 z"
       id="path6" /><path
       style="display:inline;fill:#cab589;stroke-width:1.22467"
       d="m 119.71662,236.43262 -0.60116,-0.66851 v -30.27702 c 0,-25.10069 -0.0476,-30.3494 -0.27845,-30.70048 -0.43514,-0.66178 -1.85986,-0.77268 -10.1587,-0.79075 -7.37599,-0.016 -7.67606,-0.0337 -8.07209,-0.47411 -0.4016,-0.44661 -0.41131,-0.76235 -0.41131,-13.37912 0,-12.61677 0.01,-12.93249 0.41131,-13.37912 0.37442,-0.41635 0.68349,-0.45713 3.44478,-0.45439 1.6684,0.001 8.03095,-0.10161 14.13899,-0.22943 6.10805,-0.12785 20.73034,-0.33802 32.49399,-0.46704 28.09154,-0.30813 30.98012,-0.45629 38.14959,-1.95686 8.68399,-1.81755 12.33897,-3.33582 16.68499,-6.93092 2.74979,-2.27466 2.99549,-2.42518 3.37982,-2.07046 0.41085,0.37918 0.37152,1.39175 -0.21272,5.47673 -1.1322,7.91625 -2.57102,11.64943 -6.69904,17.38142 -2.66336,3.6982 -4.94016,5.81095 -9.55403,8.86559 -2.86815,1.89887 -4.60494,2.77998 -8.01652,4.06696 -4.39315,1.65726 -6.58454,2.11736 -11.93233,2.50523 -2.60157,0.18869 -6.02577,0.45372 -7.60935,0.58895 -1.58357,0.13523 -4.61701,0.32095 -6.74099,0.41273 -3.47786,0.15027 -3.90283,0.2125 -4.27472,0.62605 -0.40946,0.45535 -0.41284,0.71609 -0.40206,31.02977 0.0111,30.36123 0.007,30.57372 -0.404,31.03193 -0.40903,0.45485 -0.64284,0.46136 -16.57487,0.46136 h -16.15998 z m -74.535258,-2.72879 c -5.800401,-4.07633 -9.738637,-7.08799 -10.124063,-7.74211 -0.346214,-0.58758 -0.369662,-3.99264 -0.467332,-67.86733 -0.07993,-52.27484 -0.158619,-67.356929 -0.353388,-67.734724 -0.553176,-1.072999 -1.434696,-0.796388 -4.487659,1.408171 -2.623177,1.894209 -9.916163,7.232823 -15.210621,11.134483 -2.488462,1.83383 -4.8845263,3.52482 -5.3245838,3.75775 l -0.8001054,0.42351 -0.496866,-0.68611 C 7.1981281,105.40515 1.0676919,92.095786 1.0676919,91.527966 c 0,-0.922352 0.9556463,-1.700697 10.8438861,-8.832018 1.331584,-0.960328 3.485345,-2.513553 4.786132,-3.451608 13.405794,-9.667519 15.642013,-11.298622 31.515506,-22.987473 6.702765,-4.935753 13.696855,-10.030108 15.54242,-11.32079 4.51458,-3.157236 13.215729,-9.485002 25.745052,-18.722666 5.712155,-4.211478 10.967082,-8.06453 11.677612,-8.562339 0.71051,-0.497809 1.72683,-1.211488 2.25849,-1.585953 1.7716,-1.247846 1.36312,-1.465558 12.19178,6.497818 5.33564,3.923825 14.29532,10.435384 19.91039,14.470133 5.61508,4.034747 11.08842,7.973874 12.16298,8.753613 1.07456,0.779739 3.43449,2.479626 5.24428,3.777525 1.8098,1.297899 4.49363,3.231783 5.96409,4.29752 1.47045,1.065737 3.9692,2.875338 5.55277,4.021338 1.58356,1.145999 10.20276,7.487661 19.15376,14.092581 8.951,6.604921 17.44839,12.832278 18.88307,13.83857 3.77975,2.65112 4.77875,3.544894 3.96222,3.544894 -0.14502,0 -1.69517,-0.755714 -3.44476,-1.679364 C 190.52546,81.085012 183.87539,77.616414 175.97994,73.577351 165.84952,68.39495 151.26458,60.88739 148.18309,59.268999 c -1.11297,-0.58453 -3.22669,-1.682343 -4.69714,-2.439584 -1.47046,-0.75724 -3.64529,-1.889899 -4.83297,-2.517019 -1.18768,-0.627121 -3.22369,-1.68189 -4.52448,-2.343931 -1.30079,-0.662041 -5.0489,-2.616189 -8.32916,-4.342551 -3.28024,-1.726363 -7.62991,-4.015379 -9.66592,-5.086705 -2.03602,-1.071324 -4.17172,-2.179461 -4.74601,-2.462525 -0.5743,-0.283064 -1.42593,-0.822185 -1.8925,-1.198046 -1.77012,-1.425956 -4.27503,-1.578943 -6.51947,-0.398177 -0.66928,0.3521 -4.645858,3.178571 -8.836836,6.281046 -4.190977,3.102477 -8.591693,6.344033 -9.779369,7.203459 -1.187676,0.859427 -3.455057,2.506915 -5.038624,3.661087 -1.583567,1.154172 -4.082315,2.973758 -5.55277,4.043526 -1.470456,1.069768 -5.033482,3.674851 -7.917837,5.789075 -5.662881,4.150872 -12.804723,9.315902 -14.016295,10.136682 -1.079402,0.731242 -2.168583,2.157117 -2.421523,3.170083 -0.151858,0.608151 -0.218546,24.671551 -0.219344,79.147361 -9.16e-4,62.47251 -0.05304,78.27097 -0.25822,78.2608 -0.14139,-0.007 -1.830357,-1.11839 -3.75326,-2.46975 z M 62.65097,209.88405 c -1.135218,-0.39249 -1.619557,-1.21759 -1.735854,-2.95715 -0.05705,-0.85343 -0.05746,-26.94952 -9.08e-4,-57.99132 l 0.102824,-56.439634 0.580608,-0.48208 0.580608,-0.482078 h 55.666902 c 61.43107,0 56.25174,-0.115525 62.30687,1.389785 7.0056,1.741603 12.97722,5.084371 18.03899,10.097777 4.18279,4.14283 6.27656,7.43493 8.18484,12.86929 1.29473,3.68709 1.65944,5.70116 1.53841,8.49594 -0.0904,2.08936 -0.16442,2.41358 -0.95532,4.18855 -1.85675,4.16693 -6.03346,7.30477 -12.1954,9.16199 -2.0363,0.61374 -18.25754,3.76823 -19.3773,3.76823 -1.28058,0 -1.36593,-0.52736 -0.82662,-5.10691 0.18827,-1.59865 0.29466,-3.75678 0.24999,-5.07036 -0.0707,-2.07732 -0.14169,-2.4194 -0.77461,-3.73074 -1.13616,-2.35396 -3.30774,-4.17123 -5.79023,-4.84554 -0.61356,-0.16666 -12.24348,-0.29015 -36.32807,-0.38576 -33.965215,-0.13486 -35.44251,-0.12363 -35.835934,0.27231 -0.407232,0.40984 -0.410339,0.73742 -0.410339,43.2697 v 42.85673 l -0.504797,0.56136 -0.504797,0.56135 -14.354003,0.001 c -7.894701,9e-4 -14.955553,0.0494 -15.690781,0.10792 -0.735227,0.0585 -1.619516,0.008 -1.965084,-0.11096 z M 34.836757,48.146862 c -0.188067,-0.20914 -0.24679,-4.889158 -0.24679,-19.668443 0,-19.089062 0.0064,-19.4011906 0.411317,-19.8514042 0.394147,-0.4383138 0.685526,-0.4574065 6.980715,-0.4574065 6.555492,0 6.570076,0.00108 6.889546,0.5082941 0.281394,0.4467621 0.319603,2.1978726 0.315632,14.4654526 -0.0042,13.037525 -0.02935,14.017952 -0.381382,14.879775 -0.312361,0.764693 -0.848412,1.277408 -3.13177,2.995434 -1.515197,1.140052 -4.349953,3.272054 -6.299457,4.737781 -1.949505,1.465729 -3.712509,2.664961 -3.917787,2.664961 -0.205279,0 -0.48429,-0.1235 -0.620024,-0.274444 z"
       id="path5" /><path
       style="display:none;fill:#9d9d9d;stroke-width:1.22467"
       d="m 119.71662,236.43262 -0.60116,-0.66851 v -30.27702 c 0,-25.10069 -0.0476,-30.3494 -0.27845,-30.70048 -0.43514,-0.66178 -1.85986,-0.77268 -10.1587,-0.79075 -7.37599,-0.016 -7.67606,-0.0337 -8.07209,-0.47411 -0.4016,-0.44661 -0.41131,-0.76235 -0.41131,-13.37912 0,-12.61677 0.01,-12.93249 0.41131,-13.37912 0.37442,-0.41635 0.68349,-0.45713 3.44478,-0.45439 1.6684,0.001 8.03095,-0.10161 14.13899,-0.22943 6.10805,-0.12785 20.73034,-0.33802 32.49399,-0.46704 28.09154,-0.30813 30.98012,-0.45629 38.14959,-1.95686 8.68399,-1.81755 12.33897,-3.33582 16.68499,-6.93092 2.74979,-2.27466 2.99549,-2.42518 3.37982,-2.07046 0.41085,0.37918 0.37152,1.39175 -0.21272,5.47673 -1.1322,7.91625 -2.57102,11.64943 -6.69904,17.38142 -2.66336,3.6982 -4.94016,5.81095 -9.55403,8.86559 -2.86815,1.89887 -4.60494,2.77998 -8.01652,4.06696 -4.39315,1.65726 -6.58454,2.11736 -11.93233,2.50523 -2.60157,0.18869 -6.02577,0.45372 -7.60935,0.58895 -1.58357,0.13523 -4.61701,0.32095 -6.74099,0.41273 -3.47786,0.15027 -3.90283,0.2125 -4.27472,0.62605 -0.40946,0.45535 -0.41284,0.71609 -0.40206,31.02977 0.0111,30.36123 0.007,30.57372 -0.404,31.03193 -0.40903,0.45485 -0.64284,0.46136 -16.57487,0.46136 H 120.31777 Z M 62.65097,209.88405 c -1.135218,-0.39249 -1.619557,-1.21759 -1.735854,-2.95715 -0.05705,-0.85343 -0.05746,-26.94952 -9.08e-4,-57.99132 l 0.102824,-56.439634 0.580608,-0.48208 0.580608,-0.482078 h 55.666902 c 61.43107,0 56.25174,-0.115525 62.30687,1.389785 7.0056,1.741603 12.97722,5.084371 18.03899,10.097777 4.18279,4.14283 6.27656,7.43493 8.18484,12.86929 1.29473,3.68709 1.65944,5.70116 1.53841,8.49594 -0.0904,2.08936 -0.16442,2.41358 -0.95532,4.18855 -1.85675,4.16693 -6.03346,7.30477 -12.1954,9.16199 -2.0363,0.61374 -18.25754,3.76823 -19.3773,3.76823 -1.28058,0 -1.36593,-0.52736 -0.82662,-5.10691 0.18827,-1.59865 0.29466,-3.75678 0.24999,-5.07036 -0.0707,-2.07732 -0.14169,-2.4194 -0.77461,-3.73074 -1.13616,-2.35396 -3.30774,-4.17123 -5.79023,-4.84554 -0.61356,-0.16666 -12.24348,-0.29015 -36.32807,-0.38576 -33.965215,-0.13486 -35.44251,-0.12363 -35.835934,0.27231 -0.407232,0.40984 -0.410339,0.73742 -0.410339,43.2697 v 42.85673 l -0.504797,0.56136 -0.504797,0.56135 -14.354003,0.001 c -7.894701,9e-4 -14.955553,0.0494 -15.690781,0.10792 -0.735227,0.0585 -1.619516,0.008 -1.965084,-0.11096 z"
       id="path4" /><path
       style="display:none;fill:#606060;stroke-width:1.22467"
       d="m 133.31748,236.93933 c -13.03235,-0.0703 -13.04823,-0.0709 -13.51909,-0.56283 l -0.47141,-0.49249 -0.0544,-30.51526 -0.0544,-30.51525 -0.48551,-0.43717 c -0.45982,-0.41404 -0.91804,-0.43718 -8.65837,-0.43718 -8.36218,0 -9.3357,-0.0903 -9.56321,-0.8875 -0.0615,-0.21552 -0.12886,-6.13766 -0.14965,-13.1603 -0.0351,-11.84339 -0.0123,-12.7893 0.31615,-13.05626 0.25785,-0.20967 2.15265,-0.32625 6.97937,-0.42939 23.44692,-0.50108 29.64504,-0.59838 38.19395,-0.5996 11.63227,-0.001 29.35489,-0.36777 33.80293,-0.69828 3.90889,-0.29046 8.4274,-1.05138 12.94802,-2.1805 6.37345,-1.59187 8.9371,-2.80445 13.14237,-6.21614 1.45662,-1.18174 2.7695,-2.09693 2.91752,-2.03377 0.47373,0.20216 0.4738,0.87888 4.3e-4,4.53458 -0.95539,7.37817 -2.4416,11.71965 -5.6639,16.5453 -2.53843,3.80147 -4.91337,6.31757 -8.30356,8.79708 -6.36782,4.65729 -13.16895,7.4029 -19.84602,8.01182 -4.45645,0.40642 -12.08234,0.94246 -16.3364,1.14835 -3.54434,0.17154 -4.17122,0.25775 -4.62731,0.63642 l -0.52755,0.43801 -0.0521,30.76571 c -0.0479,28.25123 -0.0798,30.7913 -0.39104,31.0789 -0.39434,0.36446 -0.64861,0.36791 -19.59686,0.26575 z M 62.456644,209.66375 c -0.226223,-0.10209 -0.627498,-0.4445 -0.891722,-0.76089 l -0.480406,-0.57525 -0.03374,-57.76228 -0.03374,-57.762278 0.468303,-0.521281 0.468302,-0.52128 21.537118,-0.172937 c 11.845415,-0.09512 36.714691,-0.141586 55.265051,-0.103263 33.294,0.06877 33.76234,0.07594 36.40149,0.55705 9.14238,1.666626 14.64667,4.045438 20.46299,8.843569 2.49634,2.05935 6.16551,6.14532 7.57644,8.43711 2.0614,3.34836 4.1644,9.18038 4.55926,12.64374 0.83869,7.35615 -3.81039,12.84184 -13.26683,15.65419 -3.12183,0.92842 -18.98775,3.88714 -19.55606,3.64687 -0.67686,-0.28618 -0.72261,-0.73103 -0.35904,-3.49151 0.18554,-1.4087 0.3464,-3.90027 0.35746,-5.53683 0.0198,-2.91343 0.006,-3.00702 -0.64647,-4.48372 -1.14591,-2.59262 -3.65477,-4.6574 -6.32668,-5.20684 -0.58188,-0.1197 -16.32172,-0.28244 -36.29776,-0.37538 l -35.270375,-0.16414 -0.411317,0.509 c -0.407452,0.50422 -0.412282,0.91286 -0.514145,43.4996 -0.100996,42.2234 -0.109953,42.99639 -0.502038,43.3152 -0.219565,0.17853 -0.636023,0.32039 -0.925461,0.31525 -0.28944,-0.005 -7.420941,0.0382 -15.847784,0.0963 -8.426842,0.0582 -15.506623,0.0221 -15.732847,-0.08 z"
       id="path3" /><path
       style="display:none;fill:#333333;stroke-width:1.22467"
       d="m 120.4451,236.65481 c -1.07926,-0.48648 -1.01688,1.26879 -1.07639,-30.2921 -0.0304,-16.11283 -0.0535,-29.83401 -0.0514,-30.49148 0.006,-2.05785 0.32918,-1.98728 -9.69399,-2.12077 -6.65866,-0.0888 -8.64564,-0.18106 -8.8528,-0.41155 -0.41986,-0.46716 -0.49953,-25.60463 -0.0831,-26.23828 0.34561,-0.52595 0.93088,-0.54027 40.22789,-0.98385 39.66487,-0.44773 42.41692,-0.6123 52.2586,-3.12493 5.9022,-1.50687 8.7256,-2.87731 12.72217,-6.17521 1.29682,-1.07011 2.46689,-1.94567 2.60013,-1.94567 0.47123,0 0.48425,0.75054 0.0699,4.03215 -1.05116,8.32611 -2.61953,12.57586 -6.78954,18.39735 -2.63885,3.68394 -5.79967,6.52124 -10.64884,9.55885 -3.00252,1.88085 -8.45283,4.12178 -11.97244,4.92253 -2.75687,0.62721 -8.35089,1.12337 -20.51985,1.81999 l -4.59371,0.26296 -0.51772,0.66935 -0.51772,0.66934 0.15261,30.34551 0.1526,30.34549 -0.4397,0.48897 -0.4397,0.48897 -15.78427,-0.0144 c -8.68134,-0.008 -15.97257,-0.0994 -16.20271,-0.20313 z m -58.550771,-27.66535 -0.671634,-0.66734 -0.05262,-57.66095 -0.05262,-57.660939 0.480613,-0.534468 0.480614,-0.534467 24.148145,-0.160816 c 13.28148,-0.08845 38.215163,-0.122774 55.408173,-0.07628 30.83294,0.08339 31.29703,0.09126 33.96739,0.5766 3.28886,0.597746 7.3,1.677065 9.70159,2.610507 7.66913,2.980812 15.26527,9.582093 18.77826,16.318923 0.99331,1.90484 2.35668,5.51417 2.97001,7.86262 2.38329,9.1258 -2.0669,15.41135 -13.14817,18.57078 -0.88736,0.253 -5.42212,1.18 -10.07726,2.06001 -8.79586,1.66276 -9.38934,1.7082 -9.38934,0.71878 0,-0.22805 0.1486,-1.64536 0.33022,-3.14957 0.46998,-3.89226 0.48115,-7.24738 0.0289,-8.6812 -1.02073,-3.23612 -3.9949,-5.74946 -7.45433,-6.2993 -0.67868,-0.10793 -16.90538,-0.23476 -36.05938,-0.28197 -33.9554,-0.0837 -34.837814,-0.075 -35.321771,0.34836 l -0.496357,0.43418 v 42.62159 c 0,25.67585 -0.07593,42.84368 -0.190972,43.18017 -0.110694,0.32377 -0.469406,0.66652 -0.853321,0.81534 -0.467306,0.18117 -5.254969,0.25678 -16.258435,0.25678 H 62.565963 Z"
       id="path2" /><path
       style="display:none;fill:#000000;stroke-width:1.22467"
       d="m 120.34941,236.34855 c -0.49932,-0.2801 -0.5179,-0.3773 -0.6441,-3.36998 -0.0715,-1.69487 -0.14087,-15.49078 -0.15424,-30.65757 l -0.0243,-27.576 -0.53053,-0.55445 -0.53052,-0.55445 -8.561,-0.0646 c -7.55602,-0.0571 -8.60429,-0.10817 -8.92976,-0.43568 -0.34613,-0.34835 -0.36855,-1.14385 -0.3656,-12.97149 0.002,-7.53271 0.0815,-12.73835 0.19798,-12.94344 0.22543,-0.39694 3.09347,-0.46156 38.35977,-0.86436 39.74045,-0.4539 42.33019,-0.57017 50.1806,-2.25281 8.55548,-1.83376 11.67076,-3.15075 16.43067,-6.94609 1.74784,-1.39364 2.70465,-2.02497 2.84031,-1.87411 0.29017,0.32268 -0.52208,6.36167 -1.31335,9.76469 -1.09429,4.7062 -2.41372,7.54818 -5.5213,11.89255 -2.66343,3.72344 -4.2608,5.2845 -8.31091,8.122 -4.03263,2.82527 -7.89687,4.65831 -12.7712,6.05817 -3.02808,0.86963 -4.84728,1.11365 -12.02287,1.61269 -2.77124,0.19273 -6.38055,0.44669 -8.02067,0.56437 -1.64012,0.11763 -3.66215,0.21614 -4.49339,0.21883 -1.60414,0.005 -2.7783,0.43598 -3.00877,1.10389 -0.0717,0.20765 -0.12255,14.08325 -0.11316,30.83466 0.0156,27.61918 -0.0135,30.49118 -0.31162,30.82271 -0.29559,0.32872 -1.92022,0.36527 -16.09835,0.36224 -12.27614,-0.002 -15.88347,-0.0673 -16.28371,-0.2918 z M 61.926678,208.75957 61.325524,208.09106 V 150.5547 c 0,-55.978177 0.0105,-57.547972 0.386088,-57.965694 0.370138,-0.411613 1.187891,-0.43595 19.794595,-0.589121 10.674679,-0.08787 35.650353,-0.122571 55.501503,-0.0771 39.67175,0.09087 36.74426,-0.01 42.77689,1.472731 8.12766,1.997553 14.38288,5.752868 19.93149,11.965864 3.06383,3.43071 4.80898,6.52974 6.47347,11.49561 2.14893,6.41114 1.70773,10.69161 -1.48578,14.41483 -2.59679,3.02754 -6.64437,5.16627 -12.37489,6.53889 -3.52927,0.84535 -16.90449,3.25146 -17.29946,3.11204 -0.46557,-0.16431 -0.47233,-0.42036 -0.0967,-3.66494 0.83043,-7.1733 0.54843,-9.06317 -1.7741,-11.88914 -1.75137,-2.13101 -3.95444,-3.19976 -7.00769,-3.39956 -1.22671,-0.0803 -68.03931,-0.22419 -69.709274,-0.15015 -0.197947,0.008 -0.544994,0.22179 -0.771219,0.47335 -0.40835,0.45411 -0.411336,0.76445 -0.414123,43.05332 -0.0016,23.42773 -0.05566,42.81492 -0.120256,43.08259 -0.0646,0.26769 -0.345328,0.60217 -0.623843,0.74329 -0.360183,0.1825 -5.050676,0.25658 -16.245382,0.25658 H 62.527834 Z"
       id="path1" /></g></svg>
